<?xml version="1.0" encoding="iso-8859-1"?>
<!-- Generator: Adobe Illustrator 19.0.0, SVG Export Plug-In . SVG Version: 6.00 Build 0)  -->
<svg version="1.1" id="Capa_1" xmlns="http://www.w3.org/2000/svg" xmlns:xlink="http://www.w3.org/1999/xlink" x="0px" y="0px"
	 viewBox="0 0 487.622 487.622" style="enable-background:new 0 0 487.622 487.622;" xml:space="preserve">
<g>
	<g>
		<circle style="fill:#65B3AD;" cx="243.811" cy="243.811" r="243.811"/>
		<path style="opacity:0.37;fill:#56A49E;enable-background:new    ;" d="M477.946,311.989L369.499,145.983l-145.688-26.551
			l-83.061,67.379l-19.051,159.247l105.792,141.007c5.396,0.357,10.834,0.557,16.319,0.557
			C354.795,487.622,448.449,413.457,477.946,311.989z"/>
		<path style="fill:#FFFFFF;" d="M243.811,84.54c-87.964,0-159.271,71.308-159.271,159.271s71.307,159.271,159.271,159.271
			s159.271-71.307,159.271-159.271S331.775,84.54,243.811,84.54z M253.736,332.313h-64.812l76.963-88.502l-76.963-88.502h64.812
			l76.963,88.502L253.736,332.313z"/>
	</g>
</g>
<g>
</g>
<g>
</g>
<g>
</g>
<g>
</g>
<g>
</g>
<g>
</g>
<g>
</g>
<g>
</g>
<g>
</g>
<g>
</g>
<g>
</g>
<g>
</g>
<g>
</g>
<g>
</g>
<g>
</g>
</svg>
